<svg id="toggle-icon-hacker" xmlns="http://www.w3.org/2000/svg" width="21.15" height="24.064" viewBox="0 0 21.15 24.064">
  <g id="Group_1" data-name="Group 1" transform="translate(0)">
    <path id="Path_1" data-name="Path 1" d="M48.374,13.28l1.386-1.386a3.347,3.347,0,0,0,.112-4.615L44.455,1.274a3.892,3.892,0,0,0-5.762,0l-5.413,6a3.346,3.346,0,0,0,.11,4.617l1.386,1.386A6.348,6.348,0,0,0,31,19.082V21.9a.705.705,0,0,0,.705.705H35.23v.752a.705.705,0,0,0,.705.705h11.28a.705.705,0,0,0,.705-.705v-.752h3.525a.705.705,0,0,0,.705-.705v-2.82A6.348,6.348,0,0,0,48.374,13.28ZM34.325,8.224l5.413-6a2.482,2.482,0,0,1,3.672,0l5.417,6.005a1.947,1.947,0,0,1,.159.2A20.139,20.139,0,0,0,41.575,7.1a20.168,20.168,0,0,0-7.41,1.329A1.97,1.97,0,0,1,34.325,8.224ZM45.1,8.8v.413a3.525,3.525,0,1,1-7.05,0V8.8a21.409,21.409,0,0,1,7.05,0Zm1.41,13.855H36.64V17.672a.706.706,0,0,1,.705-.705h8.46a.706.706,0,0,1,.705.705ZM50.74,21.2H47.92V17.672a2.117,2.117,0,0,0-2.115-2.115h-8.46a2.117,2.117,0,0,0-2.115,2.115V21.2H32.41V19.082a4.909,4.909,0,0,1,3.826-4.81.7.7,0,0,0,.341-1.186L34.387,10.9a1.926,1.926,0,0,1-.484-.806A13.6,13.6,0,0,1,36.64,9.1v.116a4.935,4.935,0,1,0,9.87,0V9.1a13.6,13.6,0,0,1,2.737.994,1.926,1.926,0,0,1-.484.806l-2.189,2.189a.7.7,0,0,0,.341,1.186,4.909,4.909,0,0,1,3.826,4.81Z" transform="translate(-31)" fill="#fff"/>
  </g>
</svg>
