<svg xmlns="http://www.w3.org/2000/svg" xmlns:xlink="http://www.w3.org/1999/xlink" width="30" height="30" viewBox="0 0 30 30">
  <defs>
    <clipPath id="clip-path">
      <circle id="Ellipse_14" data-name="Ellipse 14" cx="15" cy="15" r="15" fill="#d8bbfb"/>
    </clipPath>
  </defs>
  <g id="bot-avatar" clip-path="url(#clip-path)">
    <circle id="Ellipse_13" data-name="Ellipse 13" cx="15" cy="15" r="15" fill="#d8bbfb"/>
    <g id="Group_52" data-name="Group 52" transform="translate(3 3)">
      <g id="hacker-color">
        <path id="Path_34" data-name="Path 34" d="M54.472,141.262v3.253a.792.792,0,0,1-.8.8h-22.4a.792.792,0,0,1-.8-.8v-3.253a7.177,7.177,0,0,1,4.288-6.592L33.192,133.1a3.8,3.8,0,0,1-.816-1.2,3.865,3.865,0,0,1-.3-1.488c0-.064.016-.144.016-.224.416-.256,2.448-2.1,2.912-2.32l7.472-1.408.3-.064,7.712,1.728c.256.144,2.112,1.888,2.368,2.048,0,.08.016.16.016.24a3.944,3.944,0,0,1-.3,1.5,3.735,3.735,0,0,1-.816,1.184l-1.568,1.568A7.176,7.176,0,0,1,54.472,141.262Z" transform="translate(-30.472 -119.673)" fill="#3c3a41"/>
        <path id="Path_35" data-name="Path 35" d="M268,141.262v3.253a.792.792,0,0,1-.8.8H256V126.462l.3-.064,7.712,1.728c.256.144,2.112,1.888,2.368,2.048,0,.08.016.16.016.24a3.945,3.945,0,0,1-.3,1.5,3.734,3.734,0,0,1-.816,1.184l-1.568,1.568A7.176,7.176,0,0,1,268,141.262Z" transform="translate(-244 -119.673)" fill="#2b292c"/>
        <path id="Path_36" data-name="Path 36" d="M161.954,129.6v2.736a5.6,5.6,0,1,1-11.2,0V129.6a.792.792,0,0,1,.8-.8h9.6A.792.792,0,0,1,161.954,129.6Z" transform="translate(-144.354 -121.949)" fill="#fedbab"/>
        <path id="Path_37" data-name="Path 37" d="M261.6,129.6v2.736a5.606,5.606,0,0,1-5.6,5.6V128.8h4.8A.792.792,0,0,1,261.6,129.6Z" transform="translate(-244 -121.949)" fill="#ffc783"/>
        <path id="Path_38" data-name="Path 38" d="M81.611,10.5A20.329,20.329,0,0,0,71.227,7.989a20.114,20.114,0,0,0-10.384,2.528,3.789,3.789,0,0,1,.976-2.32l6.144-6.821a4.559,4.559,0,0,1,6.528,0L80.635,8.2A3.84,3.84,0,0,1,81.611,10.5Z" transform="translate(-59.227)" fill="#57555c"/>
        <path id="Path_39" data-name="Path 39" d="M266.384,10.5A20.329,20.329,0,0,0,256,7.989V0a4.353,4.353,0,0,1,3.264,1.376L265.408,8.2A3.839,3.839,0,0,1,266.384,10.5Z" transform="translate(-244)" fill="#3c3a41"/>
        <path id="Path_40" data-name="Path 40" d="M132.683,330.575h-9.6a2.4,2.4,0,0,0-2.4,2.4v6.453a.792.792,0,0,0,.8.8h12.8a.792.792,0,0,0,.8-.8v-6.453A2.4,2.4,0,0,0,132.683,330.575Z" transform="translate(-115.883 -312.986)" fill="#e1e4fb"/>
        <g id="Group_51" data-name="Group 51" transform="translate(9.6 17.589)">
          <path id="Path_41" data-name="Path 41" d="M263.2,332.975v6.453a.792.792,0,0,1-.8.8H256v-9.653h4.8A2.4,2.4,0,0,1,263.2,332.975Z" transform="translate(-253.6 -330.575)" fill="#c5c9f7"/>
          <path id="Path_42" data-name="Path 42" d="M215.695,391.516a.792.792,0,0,1-.8.8h-3.2a.8.8,0,1,1,0-1.6h3.2A.792.792,0,0,1,215.695,391.516Z" transform="translate(-210.895 -387.516)" fill="#c5c9f7"/>
        </g>
        <path id="Path_43" data-name="Path 43" d="M258.4,391.516a.792.792,0,0,1-.8.8H256v-1.6h1.6A.792.792,0,0,1,258.4,391.516Z" transform="translate(-244 -369.927)" fill="#a3b0ef"/>
      </g>
    </g>
  </g>
</svg>
