<svg xmlns="http://www.w3.org/2000/svg" width="16" height="15.144" viewBox="0 0 16 15.144">
  <g id="btn-input-attach" transform="translate(0 -13.704)">
    <g id="Group_28" data-name="Group 28" transform="translate(0 13.704)">
      <path id="Path_18" data-name="Path 18" d="M14.5,15.2a5.121,5.121,0,0,0-7.233,0l-6.2,6.2a3.654,3.654,0,0,0,5.167,5.167l5.683-5.684a2.192,2.192,0,1,0-3.1-3.1L5.1,21.5a.731.731,0,1,0,1.033,1.033l3.717-3.717a.731.731,0,1,1,1.033,1.033L5.2,25.534a2.192,2.192,0,0,1-3.1-3.1l6.2-6.2A3.653,3.653,0,1,1,13.468,21.4l-6.2,6.2A.731.731,0,0,0,8.3,28.634l6.2-6.2a5.115,5.115,0,0,0,0-7.234Z" transform="translate(0 -13.704)" fill="#fff"/>
    </g>
  </g>
</svg>
