<svg xmlns="http://www.w3.org/2000/svg" width="62" height="14" viewBox="0 0 62 14">
  <g id="drakobot-tagline" transform="translate(-748 -669)">
    <rect id="Rectangle_49" data-name="Rectangle 49" width="62" height="14" transform="translate(748 669)" fill="none"/>
    <path id="drakobot-tagline-2" data-name="drakobot-tagline" d="M.98-9.8H5.614a6.487,6.487,0,0,1,2.856.6A4.534,4.534,0,0,1,10.4-7.49a4.813,4.813,0,0,1,.686,2.59A4.813,4.813,0,0,1,10.4-2.31,4.534,4.534,0,0,1,8.47-.6,6.487,6.487,0,0,1,5.614,0H.98ZM5.5-2.212a2.841,2.841,0,0,0,2.023-.714A2.572,2.572,0,0,0,8.288-4.9a2.572,2.572,0,0,0-.763-1.974A2.841,2.841,0,0,0,5.5-7.588H3.752v5.376Zm9.45-4.466a2.476,2.476,0,0,1,1.057-.777A4.01,4.01,0,0,1,17.5-7.714V-5.32a5.438,5.438,0,0,0-.6-.042,1.855,1.855,0,0,0-1.337.462,1.873,1.873,0,0,0-.483,1.414V0h-2.66V-7.588h2.534ZM21.77-7.714a4.283,4.283,0,0,1,2.884.861,3.306,3.306,0,0,1,.994,2.639V0H23.17V-.98A2.283,2.283,0,0,1,20.93.126,3.505,3.505,0,0,1,19.4-.182a2.262,2.262,0,0,1-.973-.833,2.207,2.207,0,0,1-.329-1.2,1.942,1.942,0,0,1,.826-1.673,4.386,4.386,0,0,1,2.548-.6h1.512q-.07-1.2-1.61-1.2a3.694,3.694,0,0,0-1.106.175,2.947,2.947,0,0,0-.952.483l-.9-1.806a4.963,4.963,0,0,1,1.533-.651A7.289,7.289,0,0,1,21.77-7.714Zm-.1,6.16a1.473,1.473,0,0,0,.812-.224,1.247,1.247,0,0,0,.5-.658v-.658H21.84q-1.162,0-1.162.77a.677.677,0,0,0,.266.56A1.145,1.145,0,0,0,21.672-1.554Zm9.1-1.106-.784.8V0h-2.66V-10.388h2.66v5.446L32.7-7.588h3.15L32.7-4.34,36.12,0H32.9ZM40.4.126a4.735,4.735,0,0,1-2.2-.5,3.8,3.8,0,0,1-1.533-1.4,3.786,3.786,0,0,1-.553-2.03,3.761,3.761,0,0,1,.553-2.016A3.766,3.766,0,0,1,38.2-7.217a4.778,4.778,0,0,1,2.2-.5,4.821,4.821,0,0,1,2.212.5,3.723,3.723,0,0,1,1.526,1.386,3.787,3.787,0,0,1,.546,2.023,3.823,3.823,0,0,1-.546,2.03,3.755,3.755,0,0,1-1.526,1.4A4.766,4.766,0,0,1,40.4.126Zm0-2.114a1.5,1.5,0,0,0,1.148-.483A1.89,1.89,0,0,0,42-3.808a1.844,1.844,0,0,0-.448-1.316A1.507,1.507,0,0,0,40.4-5.6a1.507,1.507,0,0,0-1.148.476,1.844,1.844,0,0,0-.448,1.316,1.89,1.89,0,0,0,.448,1.337A1.5,1.5,0,0,0,40.4-1.988ZM47,.126a1.567,1.567,0,0,1-1.134-.448A1.513,1.513,0,0,1,45.4-1.456a1.5,1.5,0,0,1,.455-1.134A1.588,1.588,0,0,1,47-3.024a1.582,1.582,0,0,1,1.148.434,1.508,1.508,0,0,1,.448,1.134,1.524,1.524,0,0,1-.455,1.134A1.56,1.56,0,0,1,47,.126Zm6.216-7.84a4.283,4.283,0,0,1,2.884.861,3.306,3.306,0,0,1,.994,2.639V0H54.614V-.98A2.283,2.283,0,0,1,52.374.126a3.505,3.505,0,0,1-1.526-.308,2.262,2.262,0,0,1-.973-.833,2.207,2.207,0,0,1-.329-1.2,1.942,1.942,0,0,1,.826-1.673,4.386,4.386,0,0,1,2.548-.6h1.512q-.07-1.2-1.61-1.2a3.694,3.694,0,0,0-1.106.175,2.947,2.947,0,0,0-.952.483l-.9-1.806A4.963,4.963,0,0,1,51.4-7.483,7.289,7.289,0,0,1,53.214-7.714Zm-.1,6.16a1.473,1.473,0,0,0,.812-.224,1.247,1.247,0,0,0,.5-.658v-.658H53.284q-1.162,0-1.162.77a.677.677,0,0,0,.266.56A1.145,1.145,0,0,0,53.116-1.554Zm5.656-6.034h2.66V0h-2.66Zm1.33-.84a1.684,1.684,0,0,1-1.176-.406,1.305,1.305,0,0,1-.448-1.008,1.305,1.305,0,0,1,.448-1.008,1.684,1.684,0,0,1,1.176-.406,1.741,1.741,0,0,1,1.176.385,1.243,1.243,0,0,1,.448.987,1.358,1.358,0,0,1-.448,1.043A1.666,1.666,0,0,1,60.1-8.428Z" transform="translate(748 682)" fill="#fff"/>
  </g>
</svg>
